<svg xmlns="http://www.w3.org/2000/svg" viewBox="0 0 263.65 263.65"  xml:space="preserve">
    <path fill="currentColor" d="M262.846 237.792 137.021 19.858a6.002 6.002 0 0 0-10.392 0L.804 237.792a5.999 5.999 0 0 0 5.196 9h251.65a6 6 0 0 0 5.196-9zm-246.454-3L131.825 34.858l115.433 199.935H16.392z"/>
    <path fill="currentColor" d="m121.491 106.734 4.333 76.404a6.01 6.01 0 0 0 12 0l4.333-76.404c.021-.383.022-.78 0-1.172-.324-5.707-5.213-10.071-10.919-9.747s-10.07 5.212-9.747 10.919zM131.825 201.915a6.012 6.012 0 0 0-6 6 6.012 6.012 0 0 0 6 6 6.012 6.012 0 0 0 6-6 6.012 6.012 0 0 0-6-6z"/>
</svg>
